<?xml version="1.0" encoding="UTF-8"?>
<svg width="160px" height="160px" viewBox="0 0 160 160" version="1.1" xmlns="http://www.w3.org/2000/svg" xmlns:xlink="http://www.w3.org/1999/xlink">
    <!-- Generator: Sketch 51.1 (57501) - http://www.bohemiancoding.com/sketch -->
    <title>avatar/pic1</title>
    <desc>Created with Sketch.</desc>
    <defs></defs>
    <g id="avatar/pic1" stroke="none" stroke-width="1" fill="none" fill-rule="evenodd">
        <rect id="Rectangle" fill="#D8D8E4" x="0" y="0" width="160" height="160"></rect>
        <path d="M80,88.4 C84.133354,88.4 88.666642,88.999994 93.6,90.2 C99.200028,91.600007 103.733316,93.466655 107.2,95.8 C111.333354,98.533347 113.4,101.599983 113.4,105 L113.4,113.4 L46.6,113.4 L46.6,105 C46.6,101.599983 48.666646,98.533347 52.8,95.8 C56.266684,93.466655 60.799972,91.600007 66.4,90.2 C71.333358,88.999994 75.866646,88.4 80,88.4 Z M80,80 C76.999985,80 74.233346,79.2500075 71.7,77.75 C69.166654,76.2499925 67.1500075,74.233346 65.65,71.7 C64.1499925,69.166654 63.4,66.400015 63.4,63.4 C63.4,60.399985 64.1499925,57.600013 65.65,55 C67.1500075,52.399987 69.166654,50.3500075 71.7,48.85 C74.233346,47.3499925 76.999985,46.6 80,46.6 C83.000015,46.6 85.766654,47.3499925 88.3,48.85 C90.833346,50.3500075 92.8499925,52.399987 94.35,55 C95.8500075,57.600013 96.6,60.399985 96.6,63.4 C96.6,66.400015 95.8500075,69.166654 94.35,71.7 C92.8499925,74.233346 90.833346,76.2499925 88.3,77.75 C85.766654,79.2500075 83.000015,80 80,80 Z" id="person---material" fill="#FFFFFF"></path>
    </g>
</svg>