<?xml version="1.0" encoding="UTF-8"?>
<svg width="18px" height="18px" viewBox="0 0 18 18" version="1.1" xmlns="http://www.w3.org/2000/svg" xmlns:xlink="http://www.w3.org/1999/xlink">
    <!-- Generator: Sketch 51.1 (57501) - http://www.bohemiancoding.com/sketch -->
    <title>add_circle_outline - material</title>
    <desc>Created with Sketch.</desc>
    <defs></defs>
    <g id="Symbols" stroke="none" stroke-width="1" fill="none" fill-rule="evenodd" opacity="0.75">
        <g id="Add-task" transform="translate(-71.000000, -1.000000)" fill="#32325D">
            <path d="M80,16.68 C81.200006,16.68 82.3199948,16.3733364 83.36,15.76 C84.3733384,15.1733304 85.1733304,14.3733384 85.76,13.36 C86.3733364,12.3199948 86.68,11.200006 86.68,10 C86.68,8.799994 86.3733364,7.6800052 85.76,6.64 C85.1733304,5.6266616 84.3733384,4.8266696 83.36,4.24 C82.3199948,3.6266636 81.200006,3.32 80,3.32 C78.799994,3.32 77.6800052,3.6266636 76.64,4.24 C75.6266616,4.8266696 74.8266696,5.6266616 74.24,6.64 C73.6266636,7.6800052 73.32,8.799994 73.32,10 C73.32,11.200006 73.6266636,12.3199948 74.24,13.36 C74.8266696,14.3733384 75.6266616,15.1733304 76.64,15.76 C77.6800052,16.3733364 78.799994,16.68 80,16.68 Z M80,1.68 C81.5200076,1.68 82.9266602,2.0599962 84.22,2.82 C85.4733396,3.5400036 86.4599964,4.5266604 87.18,5.78 C87.9400038,7.0733398 88.32,8.4799924 88.32,10 C88.32,11.5200076 87.9400038,12.9266602 87.18,14.22 C86.4599964,15.4733396 85.4733396,16.4599964 84.22,17.18 C82.9266602,17.9400038 81.5200076,18.32 80,18.32 C78.4799924,18.32 77.0733398,17.9400038 75.78,17.18 C74.5266604,16.446663 73.5400036,15.4533396 72.82,14.2 C72.0599962,12.9066602 71.68,11.5066742 71.68,10 C71.68,8.4933258 72.0599962,7.0933398 72.82,5.8 C73.553337,4.5466604 74.5466604,3.553337 75.8,2.82 C77.0933398,2.0599962 78.4933258,1.68 80,1.68 Z M80.82,5.82 L80.82,9.18 L84.18,9.18 L84.18,10.82 L80.82,10.82 L80.82,14.18 L79.18,14.18 L79.18,10.82 L75.82,10.82 L75.82,9.18 L79.18,9.18 L79.18,5.82 L80.82,5.82 Z" id="add_circle_outline---material"></path>
        </g>
    </g>
</svg>