<?xml version="1.0" encoding="UTF-8"?>
<svg width="39px" height="39px" viewBox="0 0 39 39" version="1.1" xmlns="http://www.w3.org/2000/svg" xmlns:xlink="http://www.w3.org/1999/xlink">
    <!-- Generator: Sketch 51.1 (57501) - http://www.bohemiancoding.com/sketch -->
    <title>dns - material</title>
    <desc>Created with Sketch.</desc>
    <defs>
        <filter x="-10.8%" y="-1.2%" width="121.7%" height="102.9%" filterUnits="objectBoundingBox" id="filter-1">
            <feOffset dx="0" dy="2" in="SourceAlpha" result="shadowOffsetOuter1"></feOffset>
            <feGaussianBlur stdDeviation="4" in="shadowOffsetOuter1" result="shadowBlurOuter1"></feGaussianBlur>
            <feColorMatrix values="0 0 0 0 0.78964821   0 0 0 0 0.819767244   0 0 0 0 0.872475553  0 0 0 1 0" type="matrix" in="shadowBlurOuter1" result="shadowMatrixOuter1"></feColorMatrix>
            <feMerge>
                <feMergeNode in="shadowMatrixOuter1"></feMergeNode>
                <feMergeNode in="SourceGraphic"></feMergeNode>
            </feMerge>
        </filter>
        <linearGradient x1="0%" y1="-27.5717669%" x2="115.894209%" y2="132.002838%" id="linearGradient-2">
            <stop stop-color="#B4EC51" offset="0%"></stop>
            <stop stop-color="#429321" offset="100%"></stop>
        </linearGradient>
    </defs>
    <g id="Eventos" stroke="none" stroke-width="1" fill="none" fill-rule="evenodd">
        <g id="Board-view" transform="translate(-41.000000, -182.000000)" fill="url(#linearGradient-2)">
            <g id="Side-menu" filter="url(#filter-1)">
                <g id="Nav-2" transform="translate(29.000000, 188.000000)">
                    <path d="M24.98,7.5 C25.6600034,7.5 26.2499975,7.2500025 26.75,6.75 C27.2500025,6.2499975 27.5,5.6600034 27.5,4.98 C27.5,4.2999966 27.2500025,3.7200024 26.75,3.24 C26.2499975,2.7599976 25.6600034,2.52 24.98,2.52 C24.2999966,2.52 23.7200024,2.7599976 23.24,3.24 C22.7599976,3.7200024 22.52,4.2999966 22.52,4.98 C22.52,5.6600034 22.7599976,6.2499975 23.24,6.75 C23.7200024,7.2500025 24.2999966,7.5 24.98,7.5 Z M41.27,0 C41.6100017,0 41.8999988,0.1199988 42.14,0.36 C42.3800012,0.6000012 42.5,0.8899983 42.5,1.23 L42.5,8.73 C42.5,9.0700017 42.3800012,9.3699987 42.14,9.63 C41.8999988,9.8900013 41.6100017,10.02 41.27,10.02 L21.23,10.02 C20.8899983,10.02 20.6000012,9.8900013 20.36,9.63 C20.1199988,9.3699987 20,9.0700017 20,8.73 L20,1.23 C20,0.8899983 20.1199988,0.6000012 20.36,0.36 C20.6000012,0.1199988 20.8899983,0 21.23,0 L41.27,0 Z M24.98,19.98 C25.6600034,19.98 26.2499975,19.7400024 26.75,19.26 C27.2500025,18.7799976 27.5,18.2000034 27.5,17.52 C27.5,16.8399966 27.2500025,16.2500025 26.75,15.75 C26.2499975,15.2499975 25.6600034,15 24.98,15 C24.2999966,15 23.7200024,15.2499975 23.24,15.75 C22.7599976,16.2500025 22.52,16.8399966 22.52,17.52 C22.52,18.2000034 22.7599976,18.7799976 23.24,19.26 C23.7200024,19.7400024 24.2999966,19.98 24.98,19.98 Z M41.27,12.48 C41.6100017,12.48 41.8999988,12.6049988 42.14,12.855 C42.3800012,13.1050013 42.5,13.4099982 42.5,13.77 L42.5,21.27 C42.5,21.6100017 42.3800012,21.8999988 42.14,22.14 C41.8999988,22.3800012 41.6100017,22.5 41.27,22.5 L21.23,22.5 C20.8899983,22.5 20.6000012,22.3800012 20.36,22.14 C20.1199988,21.8999988 20,21.6100017 20,21.27 L20,13.77 C20,13.4099982 20.1199988,13.1050013 20.36,12.855 C20.6000012,12.6049988 20.8899983,12.48 21.23,12.48 L41.27,12.48 Z" id="dns---material"></path>
                </g>
            </g>
        </g>
    </g>
</svg>