<?xml version="1.0" encoding="UTF-8"?>
<svg width="44px" height="34px" viewBox="0 0 44 34" version="1.1" xmlns="http://www.w3.org/2000/svg" xmlns:xlink="http://www.w3.org/1999/xlink">
    <!-- Generator: Sketch 51.1 (57501) - http://www.bohemiancoding.com/sketch -->
    <title>group - material</title>
    <desc>Created with Sketch.</desc>
    <defs>
        <filter x="-10.8%" y="-1.2%" width="121.7%" height="102.9%" filterUnits="objectBoundingBox" id="filter-1">
            <feOffset dx="0" dy="2" in="SourceAlpha" result="shadowOffsetOuter1"></feOffset>
            <feGaussianBlur stdDeviation="4" in="shadowOffsetOuter1" result="shadowBlurOuter1"></feGaussianBlur>
            <feColorMatrix values="0 0 0 0 0.78964821   0 0 0 0 0.819767244   0 0 0 0 0.872475553  0 0 0 1 0" type="matrix" in="shadowBlurOuter1" result="shadowMatrixOuter1"></feColorMatrix>
            <feMerge>
                <feMergeNode in="shadowMatrixOuter1"></feMergeNode>
                <feMergeNode in="SourceGraphic"></feMergeNode>
            </feMerge>
        </filter>
    </defs>
    <g id="Eventos" stroke="none" stroke-width="1" fill="none" fill-rule="evenodd" opacity="0.75">
        <g id="Board-view" transform="translate(-38.000000, -86.000000)" fill="#B7BEC7">
            <g id="Side-menu" filter="url(#filter-1)">
                <g id="Nav-1" transform="translate(35.000000, 91.000000)">
                    <path d="M29.98,10.73 C31.0600054,10.73 32.2599934,10.8899984 33.58,11.21 C35.0400073,11.5900019 36.2299954,12.079997 37.15,12.68 C38.2300054,13.4000036 38.77,14.2099955 38.77,15.11 L38.77,18.23 L31.27,18.23 L31.27,15.11 C31.27,13.4099915 30.4500082,11.9700059 28.81,10.79 C29.0900014,10.7499998 29.4799975,10.73 29.98,10.73 Z M20.02,10.73 C21.1000054,10.73 22.2899935,10.8899984 23.59,11.21 C25.0500073,11.5900019 26.2299955,12.079997 27.13,12.68 C28.2100054,13.4000036 28.75,14.2099955 28.75,15.11 L28.75,18.23 L11.23,18.23 L11.23,15.11 C11.23,14.2099955 11.7699946,13.4000036 12.85,12.68 C13.7700046,12.079997 14.9599927,11.5900019 16.42,11.21 C17.7400066,10.8899984 18.9399946,10.73 20.02,10.73 Z M20.02,8.27 C19.3599967,8.27 18.7400029,8.1000017 18.16,7.76 C17.5799971,7.4199983 17.1200017,6.9600029 16.78,6.38 C16.4399983,5.7999971 16.27,5.1800033 16.27,4.52 C16.27,3.8599967 16.4399983,3.2400029 16.78,2.66 C17.1200017,2.0799971 17.5799971,1.6200017 18.16,1.28 C18.7400029,0.9399983 19.3599967,0.77 20.02,0.77 C20.6800033,0.77 21.2949972,0.9399983 21.865,1.28 C22.4350028,1.6200017 22.8849983,2.07499715 23.215,2.645 C23.5450016,3.21500285 23.71,3.8399966 23.71,4.52 C23.71,5.2000034 23.5450016,5.82499715 23.215,6.395 C22.8849983,6.96500285 22.4350028,7.4199983 21.865,7.76 C21.2949972,8.1000017 20.6800033,8.27 20.02,8.27 Z M29.98,8.27 C29.3199967,8.27 28.7000029,8.1000017 28.12,7.76 C27.5399971,7.4199983 27.0800017,6.9600029 26.74,6.38 C26.3999983,5.7999971 26.23,5.1800033 26.23,4.52 C26.23,3.8599967 26.3999983,3.2400029 26.74,2.66 C27.0800017,2.0799971 27.5399971,1.6200017 28.12,1.28 C28.7000029,0.9399983 29.3199967,0.77 29.98,0.77 C30.6400033,0.77 31.2599971,0.9399983 31.84,1.28 C32.4200029,1.6200017 32.8799983,2.0799971 33.22,2.66 C33.5600017,3.2400029 33.73,3.8599967 33.73,4.52 C33.73,5.1800033 33.5600017,5.7999971 33.22,6.38 C32.8799983,6.9600029 32.4200029,7.4199983 31.84,7.76 C31.2599971,8.1000017 30.6400033,8.27 29.98,8.27 Z" id="group---material"></path>
                </g>
            </g>
        </g>
    </g>
</svg>