<?xml version="1.0" encoding="UTF-8"?>
<svg width="260px" height="120px" viewBox="0 0 260 120" version="1.1" xmlns="http://www.w3.org/2000/svg" xmlns:xlink="http://www.w3.org/1999/xlink">
    <!-- Generator: Sketch 51.1 (57501) - http://www.bohemiancoding.com/sketch -->
    <title>Hatch</title>
    <desc>Created with Sketch.</desc>
    <defs>
        <rect id="path-1" x="-6.82121026e-13" y="0" width="260" height="120" rx="5"></rect>
    </defs>
    <g id="Hatch" stroke="none" stroke-width="1" fill="none" fill-rule="evenodd">
        <g id="Group">
            <mask id="mask-2" fill="white">
                <use xlink:href="#path-1"></use>
            </mask>
            <g id="Rectangle-5-Copy"></g>
            <path d="M-34.993597,-78.493597 L-29.993597,-78.493597 L-29.993597,241.506403 L-34.993597,241.506403 L-34.993597,-78.493597 Z M125.006403,-78.493597 L130.006403,-78.493597 L130.006403,241.506403 L125.006403,241.506403 L125.006403,-78.493597 Z M-24.993597,-78.493597 L-19.993597,-78.493597 L-19.993597,241.506403 L-24.993597,241.506403 L-24.993597,-78.493597 Z M135.006403,-78.493597 L140.006403,-78.493597 L140.006403,241.506403 L135.006403,241.506403 L135.006403,-78.493597 Z M-14.993597,-78.493597 L-9.99359697,-78.493597 L-9.99359697,241.506403 L-14.993597,241.506403 L-14.993597,-78.493597 Z M145.006403,-78.493597 L150.006403,-78.493597 L150.006403,241.506403 L145.006403,241.506403 L145.006403,-78.493597 Z M-4.99359697,-78.493597 L0.00640302673,-78.493597 L0.00640302673,241.506403 L-4.99359697,241.506403 L-4.99359697,-78.493597 Z M155.006403,-78.493597 L160.006403,-78.493597 L160.006403,241.506403 L155.006403,241.506403 L155.006403,-78.493597 Z M5.00640303,-78.493597 L10.006403,-78.493597 L10.006403,241.506403 L5.00640303,241.506403 L5.00640303,-78.493597 Z M165.006403,-78.493597 L170.006403,-78.493597 L170.006403,241.506403 L165.006403,241.506403 L165.006403,-78.493597 Z M15.006403,-78.493597 L20.006403,-78.493597 L20.006403,241.506403 L15.006403,241.506403 L15.006403,-78.493597 Z M175.006403,-78.493597 L180.006403,-78.493597 L180.006403,241.506403 L175.006403,241.506403 L175.006403,-78.493597 Z M25.006403,-78.493597 L30.006403,-78.493597 L30.006403,241.506403 L25.006403,241.506403 L25.006403,-78.493597 Z M185.006403,-78.493597 L190.006403,-78.493597 L190.006403,241.506403 L185.006403,241.506403 L185.006403,-78.493597 Z M35.006403,-78.493597 L40.006403,-78.493597 L40.006403,241.506403 L35.006403,241.506403 L35.006403,-78.493597 Z M195.006403,-78.493597 L200.006403,-78.493597 L200.006403,241.506403 L195.006403,241.506403 L195.006403,-78.493597 Z M45.006403,-78.493597 L50.006403,-78.493597 L50.006403,241.506403 L45.006403,241.506403 L45.006403,-78.493597 Z M205.006403,-78.493597 L210.006403,-78.493597 L210.006403,241.506403 L205.006403,241.506403 L205.006403,-78.493597 Z M55.006403,-78.493597 L60.006403,-78.493597 L60.006403,241.506403 L55.006403,241.506403 L55.006403,-78.493597 Z M215.006403,-78.493597 L220.006403,-78.493597 L220.006403,241.506403 L215.006403,241.506403 L215.006403,-78.493597 Z M65.006403,-78.493597 L70.006403,-78.493597 L70.006403,241.506403 L65.006403,241.506403 L65.006403,-78.493597 Z M225.006403,-78.493597 L230.006403,-78.493597 L230.006403,241.506403 L225.006403,241.506403 L225.006403,-78.493597 Z M75.006403,-78.493597 L80.006403,-78.493597 L80.006403,241.506403 L75.006403,241.506403 L75.006403,-78.493597 Z M235.006403,-78.493597 L240.006403,-78.493597 L240.006403,241.506403 L235.006403,241.506403 L235.006403,-78.493597 Z M85.006403,-78.493597 L90.006403,-78.493597 L90.006403,241.506403 L85.006403,241.506403 L85.006403,-78.493597 Z M245.006403,-78.493597 L250.006403,-78.493597 L250.006403,241.506403 L245.006403,241.506403 L245.006403,-78.493597 Z M95.006403,-78.493597 L100.006403,-78.493597 L100.006403,241.506403 L95.006403,241.506403 L95.006403,-78.493597 Z M255.006403,-78.493597 L260.006403,-78.493597 L260.006403,241.506403 L255.006403,241.506403 L255.006403,-78.493597 Z M105.006403,-78.493597 L110.006403,-78.493597 L110.006403,241.506403 L105.006403,241.506403 L105.006403,-78.493597 Z M265.006403,-78.493597 L270.006403,-78.493597 L270.006403,241.506403 L265.006403,241.506403 L265.006403,-78.493597 Z M115.006403,-78.493597 L120.006403,-78.493597 L120.006403,241.506403 L115.006403,241.506403 L115.006403,-78.493597 Z M275.006403,-78.493597 L280.006403,-78.493597 L280.006403,241.506403 L275.006403,241.506403 L275.006403,-78.493597 Z" id="Combined-Shape" fill-opacity="0.1" fill="#9898AE" mask="url(#mask-2)" transform="translate(122.506403, 81.506403) rotate(45.000000) translate(-122.506403, -81.506403) "></path>
        </g>
        <rect id="Rectangle-5" stroke="#DBDCE3" x="0.5" y="0.5" width="259" height="119" rx="5"></rect>
    </g>
</svg>