<?xml version="1.0" encoding="UTF-8"?>
<svg width="15px" height="15px" viewBox="0 0 15 15" version="1.1" xmlns="http://www.w3.org/2000/svg" xmlns:xlink="http://www.w3.org/1999/xlink">
    <!-- Generator: Sketch 51.1 (57501) - http://www.bohemiancoding.com/sketch -->
    <title>icon_attachment</title>
    <desc>Created with Sketch.</desc>
    <defs></defs>
    <g id="icon_attachment" stroke="none" stroke-width="1" fill="none" fill-rule="evenodd">
        <path d="M9.558,3.926 L10.426,3.926 L10.426,10.618 C10.426,11.2060029 10.2836681,11.7473309 9.999,12.242 C9.71433191,12.7366691 9.32700245,13.1286652 8.837,13.418 C8.34699755,13.7073348 7.81266956,13.852 7.234,13.852 C6.65533044,13.852 6.11866914,13.7073348 5.624,13.418 C5.12933086,13.1286652 4.73500147,12.7366691 4.441,12.242 C4.14699853,11.7473309 4,11.2060029 4,10.618 L4,3.352 C4,2.9319979 4.10733226,2.54233513 4.322,2.183 C4.53666774,1.82366487 4.82366487,1.53666774 5.183,1.322 C5.54233513,1.10733226 5.9319979,1 6.352,1 C6.7720021,1 7.15933156,1.10499895 7.514,1.315 C7.86866844,1.52500105 8.15099895,1.81199818 8.361,2.176 C8.57100105,2.54000182 8.676,2.9319979 8.676,3.352 L8.676,9.47 C8.676,9.73133464 8.61066732,9.97399888 8.48,10.198 C8.34933268,10.4220011 8.17433443,10.5993327 7.955,10.73 C7.73566557,10.8606673 7.49533464,10.926 7.234,10.926 C6.97266536,10.926 6.72766781,10.8606673 6.499,10.73 C6.27033219,10.5993327 6.08833401,10.4220011 5.953,10.198 C5.81766599,9.97399888 5.75,9.73133464 5.75,9.47 L5.75,3.926 L6.632,3.926 L6.632,9.47 C6.632,9.63800084 6.69033275,9.77566613 6.807,9.883 C6.92366725,9.99033387 7.06599916,10.044 7.234,10.044 C7.40200084,10.044 7.53966613,9.99033387 7.647,9.883 C7.75433387,9.77566613 7.808,9.63800084 7.808,9.47 L7.808,3.352 C7.808,3.09066536 7.74266732,2.84566781 7.612,2.617 C7.48133268,2.38833219 7.30400112,2.20633401 7.08,2.071 C6.85599888,1.93566599 6.61333464,1.868 6.352,1.868 C6.09066536,1.868 5.84800112,1.93566599 5.624,2.071 C5.39999888,2.20633401 5.22033401,2.38833219 5.085,2.617 C4.94966599,2.84566781 4.882,3.09066536 4.882,3.352 L4.882,10.618 C4.882,11.0380021 4.98933226,11.4299982 5.204,11.794 C5.41866774,12.1580018 5.70566487,12.4473323 6.065,12.662 C6.42433513,12.8766677 6.8139979,12.984 7.234,12.984 C7.6540021,12.984 8.04133156,12.8766677 8.396,12.662 C8.75066844,12.4473323 9.03299895,12.1580018 9.243,11.794 C9.45300105,11.4299982 9.558,11.0380021 9.558,10.618 L9.558,3.926 Z" id="" fill="#CCCCD7" transform="translate(7.213000, 7.426000) rotate(45.000000) translate(-7.213000, -7.426000) "></path>
    </g>
</svg>