<?xml version="1.0" encoding="UTF-8"?>
<svg width="16px" height="14px" viewBox="0 0 16 14" version="1.1" xmlns="http://www.w3.org/2000/svg" xmlns:xlink="http://www.w3.org/1999/xlink">
    <!-- Generator: Sketch 51.1 (57501) - http://www.bohemiancoding.com/sketch -->
    <title>icon_material</title>
    <desc>Created with Sketch.</desc>
    <defs></defs>
    <g id="icon_material" stroke="none" stroke-width="1" fill="none" fill-rule="evenodd">
        <path d="M10.5,4.776 L10.5,3.6 L3.5,3.6 L3.5,4.776 L10.5,4.776 Z M10.5,6.526 L10.5,5.35 L3.5,5.35 L3.5,6.526 L10.5,6.526 Z M10.5,8.276 L10.5,7.1 L3.5,7.1 L3.5,8.276 L10.5,8.276 Z M12.824,2.424 L12.824,12.924 L10.5,10.6 L2.324,10.6 C2.00666508,10.6 1.73600112,10.4833345 1.512,10.25 C1.28799888,10.0166655 1.176,9.74133492 1.176,9.424 L1.176,2.424 C1.176,2.10666508 1.28799888,1.83600112 1.512,1.612 C1.73600112,1.38799888 2.00666508,1.276 2.324,1.276 L11.676,1.276 C11.9933349,1.276 12.2639989,1.38799888 12.488,1.612 C12.7120011,1.83600112 12.824,2.10666508 12.824,2.424 Z" id="comment---material" fill="#CCCCD7"></path>
    </g>
</svg>