<?xml version="1.0" encoding="UTF-8"?>
<svg width="40px" height="39px" viewBox="0 0 40 39" version="1.1" xmlns="http://www.w3.org/2000/svg" xmlns:xlink="http://www.w3.org/1999/xlink">
    <!-- Generator: Sketch 51.1 (57501) - http://www.bohemiancoding.com/sketch -->
    <title>insert_chart - material</title>
    <desc>Created with Sketch.</desc>
    <defs>
        <filter x="-10.8%" y="-1.2%" width="121.7%" height="102.9%" filterUnits="objectBoundingBox" id="filter-1">
            <feOffset dx="0" dy="2" in="SourceAlpha" result="shadowOffsetOuter1"></feOffset>
            <feGaussianBlur stdDeviation="4" in="shadowOffsetOuter1" result="shadowBlurOuter1"></feGaussianBlur>
            <feColorMatrix values="0 0 0 0 0.78964821   0 0 0 0 0.819767244   0 0 0 0 0.872475553  0 0 0 1 0" type="matrix" in="shadowBlurOuter1" result="shadowMatrixOuter1"></feColorMatrix>
            <feMerge>
                <feMergeNode in="shadowMatrixOuter1"></feMergeNode>
                <feMergeNode in="SourceGraphic"></feMergeNode>
            </feMerge>
        </filter>
    </defs>
    <g id="Eventos" stroke="none" stroke-width="1" fill="none" fill-rule="evenodd" opacity="0.75">
        <g id="Board-view" transform="translate(-40.000000, -382.000000)" fill="#B7BEC7">
            <g id="Side-menu" filter="url(#filter-1)">
                <g id="Nav-3" transform="translate(36.000000, 388.000000)">
                    <path d="M30.27,17.77 L30.27,12.73 L27.75,12.73 L27.75,17.77 L30.27,17.77 Z M25.23,17.77 L25.23,5.23 L22.77,5.23 L22.77,17.77 L25.23,17.77 Z M20.25,17.77 L20.25,8.98 L17.73,8.98 L17.73,17.77 L20.25,17.77 Z M32.73,0.25 C33.4100034,0.25 33.9999975,0.4999975 34.5,1 C35.0000025,1.5000025 35.25,2.0899966 35.25,2.77 L35.25,20.23 C35.25,20.9100034 35.0000025,21.4999975 34.5,22 C33.9999975,22.5000025 33.4100034,22.75 32.73,22.75 L15.27,22.75 C14.5899966,22.75 14.0000025,22.5000025 13.5,22 C12.9999975,21.4999975 12.75,20.9100034 12.75,20.23 L12.75,2.77 C12.75,2.0899966 12.9999975,1.5000025 13.5,1 C14.0000025,0.4999975 14.5899966,0.25 15.27,0.25 L32.73,0.25 Z" id="insert_chart---material"></path>
                </g>
            </g>
        </g>
    </g>
</svg>