<?xml version="1.0" encoding="UTF-8"?>
<svg width="40px" height="40px" viewBox="0 0 40 40" version="1.1" xmlns="http://www.w3.org/2000/svg" xmlns:xlink="http://www.w3.org/1999/xlink">
    <!-- Generator: Sketch 51.1 (57501) - http://www.bohemiancoding.com/sketch -->
    <title>pic_holder</title>
    <desc>Created with Sketch.</desc>
    <defs>
        <circle id="path-1" cx="20" cy="20" r="20"></circle>
    </defs>
    <g id="pic_holder" stroke="none" stroke-width="1" fill="none" fill-rule="evenodd">
        <mask id="mask-2" fill="white">
            <use xlink:href="#path-1"></use>
        </mask>
        <use id="Mask" fill="#9B9B9B" xlink:href="#path-1"></use>
        <g id="avatar/pic1" mask="url(#mask-2)">
            <rect id="Rectangle" fill="#D8D8E4" x="0" y="0" width="40" height="40"></rect>
            <path d="M20,22.1 C21.0333385,22.1 22.1666605,22.2499985 23.4,22.55 C24.800007,22.9000018 25.933329,23.3666638 26.8,23.95 C27.8333385,24.6333367 28.35,25.3999957 28.35,26.25 L28.35,28.35 L11.65,28.35 L11.65,26.25 C11.65,25.3999957 12.1666615,24.6333367 13.2,23.95 C14.066671,23.3666638 15.199993,22.9000018 16.6,22.55 C17.8333395,22.2499985 18.9666615,22.1 20,22.1 Z M20,20 C19.2499962,20 18.5583365,19.8125019 17.925,19.4375 C17.2916635,19.0624981 16.7875019,18.5583365 16.4125,17.925 C16.0374981,17.2916635 15.85,16.6000037 15.85,15.85 C15.85,15.0999963 16.0374981,14.4000033 16.4125,13.75 C16.7875019,13.0999967 17.2916635,12.5875019 17.925,12.2125 C18.5583365,11.8374981 19.2499962,11.65 20,11.65 C20.7500037,11.65 21.4416635,11.8374981 22.075,12.2125 C22.7083365,12.5875019 23.2124981,13.0999967 23.5875,13.75 C23.9625019,14.4000033 24.15,15.0999963 24.15,15.85 C24.15,16.6000037 23.9625019,17.2916635 23.5875,17.925 C23.2124981,18.5583365 22.7083365,19.0624981 22.075,19.4375 C21.4416635,19.8125019 20.7500037,20 20,20 Z" id="person---material" fill="#FFFFFF"></path>
        </g>
    </g>
</svg>