<?xml version="1.0" encoding="UTF-8"?>
<svg width="40px" height="41px" viewBox="0 0 40 41" version="1.1" xmlns="http://www.w3.org/2000/svg" xmlns:xlink="http://www.w3.org/1999/xlink">
    <!-- Generator: Sketch 51.1 (57501) - http://www.bohemiancoding.com/sketch -->
    <title>settings - material</title>
    <desc>Created with Sketch.</desc>
    <defs>
        <filter x="-10.8%" y="-1.2%" width="121.7%" height="102.9%" filterUnits="objectBoundingBox" id="filter-1">
            <feOffset dx="0" dy="2" in="SourceAlpha" result="shadowOffsetOuter1"></feOffset>
            <feGaussianBlur stdDeviation="4" in="shadowOffsetOuter1" result="shadowBlurOuter1"></feGaussianBlur>
            <feColorMatrix values="0 0 0 0 0.78964821   0 0 0 0 0.819767244   0 0 0 0 0.872475553  0 0 0 1 0" type="matrix" in="shadowBlurOuter1" result="shadowMatrixOuter1"></feColorMatrix>
            <feMerge>
                <feMergeNode in="shadowMatrixOuter1"></feMergeNode>
                <feMergeNode in="SourceGraphic"></feMergeNode>
            </feMerge>
        </filter>
    </defs>
    <g id="Eventos" stroke="none" stroke-width="1" fill="none" fill-rule="evenodd" opacity="0.75">
        <g id="Board-view" transform="translate(-42.000000, -820.000000)" fill="#B7BEC7">
            <g id="Side-menu" filter="url(#filter-1)">
                <g id="Settings" transform="translate(35.000000, 826.000000)">
                    <path d="M27,16.88 C27.7800039,16.88 28.5099966,16.680002 29.19,16.28 C29.8700034,15.879998 30.409998,15.3450033 30.81,14.675 C31.210002,14.0049966 31.41,13.2800039 31.41,12.5 C31.41,11.7199961 31.210002,10.9900034 30.81,10.31 C30.409998,9.6299966 29.8700034,9.090002 29.19,8.69 C28.5099966,8.289998 27.7800039,8.09 27,8.09 C26.2199961,8.09 25.4950033,8.289998 24.825,8.69 C24.1549966,9.090002 23.620002,9.6299966 23.22,10.31 C22.819998,10.9900034 22.62,11.7199961 22.62,12.5 C22.62,13.2800039 22.819998,14.0049966 23.22,14.675 C23.620002,15.3450033 24.1549966,15.879998 24.825,16.28 C25.4950033,16.680002 26.2199961,16.88 27,16.88 Z M36.33,13.73 L38.94,15.77 C39.0600006,15.8700005 39.1299999,15.9999992 39.15,16.16 C39.1700001,16.3200008 39.1400004,16.4699993 39.06,16.61 L36.54,20.93 C36.4599996,21.0700007 36.3550006,21.1599998 36.225,21.2 C36.0949993,21.2400002 35.9500008,21.2300003 35.79,21.17 L32.7,19.94 C31.899996,20.5200029 31.1900031,20.9299988 30.57,21.17 L30.12,24.44 C30.0799998,24.6000008 30.0050005,24.7299995 29.895,24.83 C29.7849994,24.9300005 29.6600007,24.98 29.52,24.98 L24.48,24.98 C24.3399993,24.98 24.2150005,24.9300005 24.105,24.83 C23.9949994,24.7299995 23.9300001,24.6000008 23.91,24.44 L23.43,21.17 C22.5899958,20.8299983 21.8900028,20.4200024 21.33,19.94 L18.21,21.17 C17.8899984,21.3100007 17.6400009,21.2300015 17.46,20.93 L14.94,16.61 C14.8599996,16.4699993 14.8299999,16.3200008 14.85,16.16 C14.8700001,15.9999992 14.9399994,15.8700005 15.06,15.77 L17.7,13.73 C17.6599998,13.4499986 17.64,13.0400027 17.64,12.5 C17.64,11.9599973 17.6599998,11.5500014 17.7,11.27 L15.06,9.23 C14.9399994,9.1299995 14.8700001,9.0000008 14.85,8.84 C14.8299999,8.6799992 14.8599996,8.5300007 14.94,8.39 L17.46,4.07 C17.6400009,3.7699985 17.8899984,3.6899993 18.21,3.83 L21.33,5.06 C22.0500036,4.5199973 22.7499966,4.1100014 23.43,3.83 L23.91,0.56 C23.9300001,0.3999992 23.9949994,0.2700005 24.105,0.17 C24.2150005,0.0699995 24.3399993,0.02 24.48,0.02 L29.52,0.02 C29.6600007,0.02 29.7849994,0.0699995 29.895,0.17 C30.0050005,0.2700005 30.0799998,0.3999992 30.12,0.56 L30.57,3.83 C31.3500039,4.1300015 32.0599968,4.5399974 32.7,5.06 L35.79,3.83 C35.9500008,3.7699997 36.0949993,3.7599998 36.225,3.8 C36.3550006,3.8400002 36.4599996,3.9299993 36.54,4.07 L39.06,8.39 C39.1400004,8.5300007 39.1700001,8.6799992 39.15,8.84 C39.1299999,9.0000008 39.0600006,9.1299995 38.94,9.23 L36.33,11.27 C36.3700002,11.5500014 36.39,11.9599973 36.39,12.5 C36.39,13.0400027 36.3700002,13.4499986 36.33,13.73 Z" id="settings---material"></path>
                </g>
            </g>
        </g>
    </g>
</svg>